<svg xmlns="http://www.w3.org/2000/svg" width="27" height="27" viewBox="0 0 910 1008">
  <defs>
    <style>
      .cls-1 {
        fill: none;
        stroke: #fff;
        stroke-width: 70.18px;
        fill-rule: evenodd;
      }
    </style>
  </defs>
  <path class="cls-1" d="M132,255H606a20,20,0,0,1,20,20V886a20,20,0,0,1-20,20H132a20,20,0,0,1-20-20V275A20,20,0,0,1,132,255Z"/>
  <path class="cls-1" d="M290,85H764a20,20,0,0,1,20,20V716a20,20,0,0,1-20,20H290a20,20,0,0,1-20-20V105A20,20,0,0,1,290,85Z"/>
</svg>
